<svg xmlns="http://www.w3.org/2000/svg" viewBox="0 0 344 300.59"><defs><style>.cls-1{fill:#ede0c3;}.cls-2{fill:#cebfa1;}.cls-3{fill:#b0967e;}.cls-4{fill:#221b22;}.cls-5{fill:#564c54;}.cls-6{fill:#fff;}.cls-7{fill:#f77659;}.cls-8{fill:#e33d15;}.cls-9{fill:#f0f0f0;}.cls-10{fill:#ebb12b;}.cls-11{fill:#d38400;}.cls-12{fill:#4b71f8;}.cls-13{fill:#995113;}.cls-14{fill:#3639d9;}.cls-15{opacity:0.5;}.cls-16{fill:#6c370d;}.cls-17{opacity:0.8;}</style></defs><title>3776805</title><g id="OBJECTS"><ellipse class="cls-1" cx="166.87" cy="293.02" rx="166.87" ry="7.57"/><path class="cls-2" d="M435.37,290.86c10.28-9.92,31.26,8.87,43.45,21.69,5.61,5.88,9.36,10.51,9.36,10.51q2.81,2.7,4.84,4.9c.74.81,1.39,1.55,2,2.25L477.8,337c-5.37-3.2-11.16-6.74-14.94-9.25C446.77,317.07,425.66,300.24,435.37,290.86Z" transform="translate(-327.29 -119.66)"/><path class="cls-3" d="M451.77,303.68a.82.82,0,0,1,1.16-.15c1.12.88,23.38,18.3,35.47,29.29l-1.71.68c-12.33-11.1-34.5-28.45-34.77-28.67A.82.82,0,0,1,451.77,303.68Z" transform="translate(-327.29 -119.66)"/><path class="cls-1" d="M482.61,302.39q1.44,3.62,2.38,6.46c.48,1.47.86,2.77,1.14,3.93l-13.6,5.38c-4.33-6.14-11.26-16.09-14.92-22-10.22-16.39-22.47-40.46-9.75-45,13.47-4.78,24.79,21,30.59,37.72C481.11,296.63,482.61,302.39,482.61,302.39Z" transform="translate(-327.29 -119.66)"/><path class="cls-2" d="M478.78,315.69c-5.61-14.12-21.47-44.56-21.64-44.9a.83.83,0,0,1,.35-1.11.82.82,0,0,1,1.11.35c.72,1.37,16.11,30.93,21.72,45.05Z" transform="translate(-327.29 -119.66)"/><path class="cls-2" d="M617.41,258.83s60.72-19.38,53.24-42.19C662.4,191.47,628.42,229.49,617.41,258.83Z" transform="translate(-327.29 -119.66)"/><path class="cls-3" d="M611.36,264.74c13.69-15.72,36-34.3,36.32-34.53a.5.5,0,0,1,.71.06.52.52,0,0,1-.06.72c-.28.23-22.79,18.94-36.38,34.6Z" transform="translate(-327.29 -119.66)"/><path class="cls-1" d="M623.11,240.91s-1.77-74.41,28.17-67.41C674.16,178.84,653.54,220.81,623.11,240.91Z" transform="translate(-327.29 -119.66)"/><path class="cls-2" d="M610.85,267.7c11.59-25.94,30.78-68,31-68.5a.5.5,0,0,1,.67-.25.51.51,0,0,1,.25.67c-.23.5-19.7,43.17-31.26,69.05Z" transform="translate(-327.29 -119.66)"/><path class="cls-2" d="M605.84,378.3a380.66,380.66,0,0,0,30.93-51.55c8.53-17.75,11.68-31.83,9.36-41.85a1.24,1.24,0,1,0-2.41.55c4.06,17.53-10.06,50.62-40.94,92.81Z" transform="translate(-327.29 -119.66)"/><path class="cls-1" d="M643.06,310.29s8.78,5.43,17.72-10.39C660.78,299.9,645,295.41,643.06,310.29Z" transform="translate(-327.29 -119.66)"/><path class="cls-1" d="M638.87,318.69s5.91-8.47-9.39-18.27C629.48,300.42,624.12,316,638.87,318.69Z" transform="translate(-327.29 -119.66)"/><path class="cls-1" d="M645.57,292.89s8.39-6-2.76-20.36C642.81,272.53,632.58,285.38,645.57,292.89Z" transform="translate(-327.29 -119.66)"/><path class="cls-1" d="M631,335.83s6.44,8.08,20.2-3.78C651.17,332.05,637.81,322.48,631,335.83Z" transform="translate(-327.29 -119.66)"/><path class="cls-1" d="M625.42,343.74s7.28-7.32-6.09-19.62C619.33,324.12,611.36,338.49,625.42,343.74Z" transform="translate(-327.29 -119.66)"/><path class="cls-1" d="M618.88,355.32s6.28,8.2,20.26-3.4C639.14,351.92,626,342.09,618.88,355.32Z" transform="translate(-327.29 -119.66)"/><path class="cls-1" d="M613.83,364.26s-10.19-1.64-6.62-19.45C607.21,344.81,622.11,351.74,613.83,364.26Z" transform="translate(-327.29 -119.66)"/><path class="cls-4" d="M626.23,143.65V400.31a14.57,14.57,0,0,1-14.57,14.57H483.85a14.56,14.56,0,0,1-14.57-14.57V143.65a14.56,14.56,0,0,1,14.57-14.56H611.66a14.56,14.56,0,0,1,14.57,14.56Z" transform="translate(-327.29 -119.66)"/><path class="cls-5" d="M141.59,55.59h.4a0,0,0,0,1,0,0V89.5a0,0,0,0,1,0,0h-.4a4.93,4.93,0,0,1-4.93-4.93V60.52A4.93,4.93,0,0,1,141.59,55.59Z"/><path class="cls-5" d="M630.26,172.68h.33a0,0,0,0,1,0,0v27.61a0,0,0,0,1,0,0h-.33a4,4,0,0,1-4-4V176.71A4,4,0,0,1,630.26,172.68Z" transform="translate(929.52 253.31) rotate(180)"/><path class="cls-5" d="M141.59,94.1h.4a0,0,0,0,1,0,0V128a0,0,0,0,1,0,0h-.4a4.93,4.93,0,0,1-4.93-4.93V99A4.93,4.93,0,0,1,141.59,94.1Z"/><path class="cls-6" d="M619,142.77V401.19a6.42,6.42,0,0,1-6.42,6.42H483a6.42,6.42,0,0,1-6.41-6.42V142.77a6.42,6.42,0,0,1,6.41-6.42H612.54a6.37,6.37,0,0,1,2.52.51A6.44,6.44,0,0,1,619,142.77Z" transform="translate(-327.29 -119.66)"/><path class="cls-1" d="M608.23,265.58h-118a.85.85,0,0,0-.85.85h0a.85.85,0,0,0,.85.84h118a.85.85,0,0,0,.85-.84h0A.85.85,0,0,0,608.23,265.58Z" transform="translate(-327.29 -119.66)"/><path class="cls-1" d="M608.23,272.68h-118a.85.85,0,0,0-.85.85h0a.85.85,0,0,0,.85.84h118a.85.85,0,0,0,.85-.84h0A.85.85,0,0,0,608.23,272.68Z" transform="translate(-327.29 -119.66)"/><path class="cls-1" d="M608.23,178.24h-56.6a.84.84,0,0,1-.84-.84h0a.85.85,0,0,1,.84-.85h56.6a.85.85,0,0,1,.85.85h0A.84.84,0,0,1,608.23,178.24Z" transform="translate(-327.29 -119.66)"/><path class="cls-1" d="M608.23,185.34h-56.6a.84.84,0,0,1-.84-.84h0a.85.85,0,0,1,.84-.85h56.6a.85.85,0,0,1,.85.85h0A.84.84,0,0,1,608.23,185.34Z" transform="translate(-327.29 -119.66)"/><path class="cls-1" d="M608.23,192.44h-56.6a.85.85,0,0,1-.84-.84h0a.85.85,0,0,1,.84-.85h56.6a.85.85,0,0,1,.85.85h0A.85.85,0,0,1,608.23,192.44Z" transform="translate(-327.29 -119.66)"/><path class="cls-1" d="M608.23,199.54h-56.6a.85.85,0,0,1-.84-.84h0a.85.85,0,0,1,.84-.85h56.6a.85.85,0,0,1,.85.85h0A.85.85,0,0,1,608.23,199.54Z" transform="translate(-327.29 -119.66)"/><path class="cls-1" d="M608.23,206.64h-56.6a.85.85,0,0,1-.84-.84h0a.85.85,0,0,1,.84-.85h56.6a.85.85,0,0,1,.85.85h0A.85.85,0,0,1,608.23,206.64Z" transform="translate(-327.29 -119.66)"/><path class="cls-1" d="M608.23,213.74h-56.6a.85.85,0,0,1-.84-.84h0a.85.85,0,0,1,.84-.85h56.6a.85.85,0,0,1,.85.85h0A.85.85,0,0,1,608.23,213.74Z" transform="translate(-327.29 -119.66)"/><rect class="cls-7" x="541.71" y="328.25" width="47.81" height="36.31" transform="translate(803.94 573.16) rotate(180)"/><rect class="cls-7" x="540.13" y="326.44" width="50.97" height="6.04" transform="translate(803.94 539.25) rotate(180)"/><rect class="cls-8" x="541.71" y="332.48" width="47.81" height="3.32" transform="translate(803.94 548.62) rotate(180)"/><rect class="cls-6" x="563.52" y="326.44" width="4.19" height="38.16" transform="translate(803.94 571.38) rotate(180)"/><rect class="cls-9" x="236.23" y="215.92" width="4.19" height="29.02"/><rect class="cls-1" x="236.23" y="212.81" width="4.19" height="3.32"/><rect class="cls-10" x="511.1" y="291.11" width="47.81" height="36.31" transform="translate(822.73 249.78) rotate(155.56)"/><rect class="cls-10" x="502.5" y="290.81" width="50.97" height="6.04" transform="translate(802.95 223.21) rotate(155.56)"/><rect class="cls-11" x="506.02" y="296.43" width="47.81" height="3.32" transform="translate(808.41 230.55) rotate(155.56)"/><rect class="cls-6" x="532.54" y="289.37" width="4.19" height="38.16" transform="translate(821.69 248.38) rotate(155.56)"/><rect class="cls-9" x="534.43" y="298.11" width="4.19" height="29.02" transform="translate(-408.56 130.34) rotate(-24.44)"/><rect class="cls-1" x="527.83" y="296.43" width="4.19" height="3.32" transform="translate(-403.14 126.32) rotate(-24.44)"/><circle class="cls-4" cx="245.53" cy="271.38" r="6.37"/><circle class="cls-5" cx="245.53" cy="271.38" r="3.99"/><path class="cls-4" d="M531.66,391a6.38,6.38,0,1,0,6.37-6.37A6.37,6.37,0,0,0,531.66,391Z" transform="translate(-327.29 -119.66)"/><path class="cls-5" d="M538,395a4,4,0,1,0-4-4A4,4,0,0,0,538,395Z" transform="translate(-327.29 -119.66)"/><path class="cls-4" d="M600.68,308.73a1.58,1.58,0,0,0-1.22-.56h-94L504,302.7a1.65,1.65,0,0,0-1.58-1.2H492.26v3.27h8.92l1.45,5.31a.39.39,0,0,0,0,.14l2.94,10.56h0l.45,1.63,3.71,13.3.9,3.24,3.58,12.86.9,3.25,3.23,11.59c0,.07,0,.14.07.21h0l2.78,10a12.11,12.11,0,0,0,11.63,8.83h49.56a1.62,1.62,0,1,0,0-3.24H532.86a8.87,8.87,0,0,1-8.51-6.46l-2.27-8.14H591.6a1.63,1.63,0,0,0,1.61-1.4l1.58-11.38.45-3.25L597,339l.45-3.24,1.9-13.67a1.62,1.62,0,0,0,.22-.82,1.29,1.29,0,0,0-.05-.4l1.5-10.81A1.58,1.58,0,0,0,600.68,308.73ZM590.19,364.6h-69l-2.22-8a1.8,1.8,0,0,0-.08-.21h0l-.38-1.35h73ZM592,351.81H517.6L514,339h79.75Zm2.25-16.1H513.11l-3.58-12.87H596Zm2.24-16.11H508.63l-2.28-8.19H597.6Z" transform="translate(-327.29 -119.66)"/><path class="cls-5" d="M482.34,303.13h0a1.63,1.63,0,0,0,1.64,1.64h11.29V301.5H484A1.63,1.63,0,0,0,482.34,303.13Z" transform="translate(-327.29 -119.66)"/><rect class="cls-1" x="162.11" y="54.16" width="53.5" height="42.14" rx="9.04"/><path class="cls-7" d="M492.84,206.38l42.37-.18a5.91,5.91,0,0,0,.54-2.36c.25-3.58-.91-9.3-1.49-12.9-.07-.42-.13-.82-.18-1.17a12.22,12.22,0,0,1-.13-1.47c0-3-2.61-2.43-2.61-2.43-4.27,4.22-9.15-2.06-12,0,0,0-1.22.88-4.57,3.92s-9.06,5.06-13.92,7.12c-6.27,2.66-8,5.29-8.38,7.1A3.33,3.33,0,0,0,492.84,206.38Z" transform="translate(-327.29 -119.66)"/><path class="cls-8" d="M492.84,206.38l42.37-.18a5.91,5.91,0,0,0,.54-2.36l-43.26.19A3.33,3.33,0,0,0,492.84,206.38Z" transform="translate(-327.29 -119.66)"/><path class="cls-6" d="M518.74,187.69s-.77-1.85-2.45-1.25-1.5,3.37-1.5,3.37S515.81,192.33,518.74,187.69Z" transform="translate(-327.29 -119.66)"/><path class="cls-6" d="M519.29,196a.7.7,0,0,0,.7-.7,8.87,8.87,0,0,0-2.78-6.57.7.7,0,0,0-1,.08.71.71,0,0,0,.08,1,7.49,7.49,0,0,1,2.28,5.5A.7.7,0,0,0,519.29,196Z" transform="translate(-327.29 -119.66)"/><path class="cls-6" d="M510.46,190.57a.71.71,0,0,0,.47-.18c.88-.79,3.48-.95,4.91-.86a.7.7,0,0,0,.74-.66.69.69,0,0,0-.65-.73c-.44,0-4.33-.22-5.94,1.21a.7.7,0,0,0,.47,1.22Z" transform="translate(-327.29 -119.66)"/><path class="cls-6" d="M516.62,190l.29-1.49h0l-.72-.72c.39-.4,3.92-3.84,6.85-3.85h0a3,3,0,0,1,2.19.92,2.15,2.15,0,0,1,.52,2.26c-.46,1.35-2.13,2.38-4.34,2.69a24.36,24.36,0,0,1-3.38.27A8.5,8.5,0,0,1,516.62,190Zm1-1.43a21.14,21.14,0,0,0,3.68-.25c1.85-.26,2.91-1,3.13-1.68a.63.63,0,0,0-.18-.72,1.47,1.47,0,0,0-1.11-.46h0C521.31,185.51,518.77,187.53,517.6,188.61Z" transform="translate(-327.29 -119.66)"/><path class="cls-6" d="M515.46,189.38l.64-1.37c-1.4-.66-2.74-2.39-2.66-3.43,0-.26.13-.57.79-.77a.84.84,0,0,1,.82.09c.74.57,1,2.48,1,3.55l1.51,0c0-.36,0-3.57-1.53-4.77a2.61,2.61,0,0,0-4,1.75C511.79,186.32,513.68,188.54,515.46,189.38Z" transform="translate(-327.29 -119.66)"/><path class="cls-8" d="M530.89,206.21h1.25a9.31,9.31,0,0,1-2.3-6.77,11.92,11.92,0,0,1,4.42-8.5c-.07-.42-.13-.82-.18-1.17a13,13,0,0,0-5.25,9.62A10.25,10.25,0,0,0,530.89,206.21Z" transform="translate(-327.29 -119.66)"/><path class="cls-6" d="M515.52,192.31a.71.71,0,0,0,.68-.54.7.7,0,0,0-.52-.84l-2.64-.65a.7.7,0,1,0-.33,1.36l2.64.65Z" transform="translate(-327.29 -119.66)"/><path class="cls-6" d="M512.88,193.86a.71.71,0,0,0,.68-.54.7.7,0,0,0-.51-.84l-2.65-.65a.7.7,0,1,0-.33,1.36l2.64.65Z" transform="translate(-327.29 -119.66)"/><path class="cls-6" d="M510.24,195.35a.71.71,0,0,0,.68-.54.7.7,0,0,0-.51-.84l-2.65-.65a.7.7,0,1,0-.33,1.36l2.64.65Z" transform="translate(-327.29 -119.66)"/><path class="cls-6" d="M507.36,196.73a.71.71,0,0,0,.68-.54.7.7,0,0,0-.51-.84l-2.65-.65a.7.7,0,1,0-.33,1.36l2.65.65Z" transform="translate(-327.29 -119.66)"/><path class="cls-6" d="M504.24,197.91a.7.7,0,0,0,.67-.54.68.68,0,0,0-.51-.84l-2.65-.65a.7.7,0,0,0-.33,1.36l2.65.65Z" transform="translate(-327.29 -119.66)"/><polygon class="cls-10" points="179.1 125.46 174.66 127.79 175.51 122.84 171.91 119.34 176.88 118.62 179.1 114.11 181.33 118.62 186.3 119.34 182.7 122.84 183.55 127.79 179.1 125.46"/><polygon class="cls-10" points="201.78 125.46 197.34 127.79 198.19 122.84 194.59 119.34 199.56 118.62 201.78 114.11 204 118.62 208.97 119.34 205.38 122.84 206.23 127.79 201.78 125.46"/><polygon class="cls-10" points="224.46 125.46 220.01 127.79 220.86 122.84 217.27 119.34 222.24 118.62 224.46 114.11 226.68 118.62 231.65 119.34 228.06 122.84 228.9 127.79 224.46 125.46"/><polygon class="cls-10" points="247.14 125.46 242.69 127.79 243.54 122.84 239.94 119.34 244.91 118.62 247.14 114.11 249.36 118.62 254.33 119.34 250.73 122.84 251.58 127.79 247.14 125.46"/><polygon class="cls-1" points="268.59 125.46 264.14 127.79 264.99 122.84 261.39 119.34 266.36 118.62 268.59 114.11 270.81 118.62 275.78 119.34 272.18 122.84 273.03 127.79 268.59 125.46"/><path class="cls-1" d="M595.65,254.05H502a13.43,13.43,0,0,1,0-26.86h93.61a13.43,13.43,0,1,1,0,26.86ZM502,228.5a12.12,12.12,0,0,0,0,24.24h93.61a12.12,12.12,0,0,0,0-24.24Z" transform="translate(-327.29 -119.66)"/><path class="cls-1" d="M619,142.77v13.62H476.55V142.77a6.42,6.42,0,0,1,6.41-6.42H612.54a6.37,6.37,0,0,1,2.52.51A6.44,6.44,0,0,1,619,142.77Z" transform="translate(-327.29 -119.66)"/><rect class="cls-4" x="176.41" y="14.75" width="88.1" height="14.77" rx="6.83"/><rect class="cls-5" x="190.4" y="19.35" width="52.8" height="3.63" rx="1.68"/><path class="cls-5" d="M583.36,140.71a2.18,2.18,0,1,1-2.18-2.18A2.18,2.18,0,0,1,583.36,140.71Z" transform="translate(-327.29 -119.66)"/><path class="cls-12" d="M620,190.6l11.72,26.73a3.43,3.43,0,0,0,4.52,1.76L663,207.36a3.42,3.42,0,0,0,1.76-4.51L653,176.12a3.42,3.42,0,0,0-4.51-1.77l-26.73,11.73A3.42,3.42,0,0,0,620,190.6Zm17.82-5.16a1.77,1.77,0,1,1,.71-1.72A1.75,1.75,0,0,1,637.84,185.44Z" transform="translate(-327.29 -119.66)"/><path class="cls-6" d="M630.22,197.36c-1.28-2.94-.13-5.45,2.39-6.55s5.14-.25,6.43,2.68.13,5.45-2.38,6.55S631.52,200.32,630.22,197.36Zm12.22-10.59,4-1.75-4.05,21.55-4,1.75Zm-6.77,8.2c-.69-1.59-1.42-1.83-1.94-1.61s-.84.94-.14,2.52,1.42,1.83,1.95,1.61S636.37,196.56,635.67,195Zm10.14,4.87c-1.29-2.93-.13-5.45,2.38-6.55s5.14-.25,6.43,2.69.13,5.45-2.38,6.55S647.11,202.81,645.81,199.84Zm5.44-2.38c-.69-1.59-1.42-1.84-1.94-1.61s-.83.93-.14,2.52,1.43,1.83,2,1.6S652,199,651.25,197.46Z" transform="translate(-327.29 -119.66)"/><path class="cls-7" d="M638.9,170.7a68.27,68.27,0,0,0-12.28-25.82l-.38-.48v1.5a67.61,67.61,0,0,1,11.81,25,26.68,26.68,0,0,1,.66,7.77,7.72,7.72,0,0,1-1.19,3.75,3.4,3.4,0,0,1-.83.82,3.24,3.24,0,0,1-1.63.52,1.75,1.75,0,0,0,.09.87,4,4,0,0,0,3.05-1.68,8.82,8.82,0,0,0,1.4-4.67A28.5,28.5,0,0,0,638.9,170.7Zm-12.66,7.86c-9-11.11-21.61-43.8-23.76-49.47a1.12,1.12,0,0,1-.05-.13l.57.13h3.18a30.46,30.46,0,0,0-4.35-1.12.43.43,0,0,0-.41.15.42.42,0,0,0-.07.43l.2.54c1.89,5,15.28,40,24.69,50.8a13.78,13.78,0,0,0,2.52,2.33c.25.17.49.33.73.47l1-.42c-.39-.23-.8-.48-1.21-.76A14.67,14.67,0,0,1,626.24,178.56Z" transform="translate(-327.29 -119.66)"/><polygon class="cls-13" points="48.73 253.29 44.26 257.05 49.43 265.18 53.9 261.42 48.73 253.29"/><path class="cls-10" d="M376.28,412.49l-18.83-29.6a4.91,4.91,0,0,1,1.4-1.43c2.38-1.78,6.89-3.52,9.66-4.73l.89-.4c.46-.22.83-.41,1.09-.57a1.79,1.79,0,0,1,2.86.74c-1,4.86,5.53,5.45,5.34,8.35,0,0-.07,1.24-.69,4.94s.53,8.57,1.27,12.88c1,5.56-.08,8-1.19,9A2.72,2.72,0,0,1,376.28,412.49Z" transform="translate(-327.29 -119.66)"/><path class="cls-11" d="M376.28,412.49l-18.83-29.6a4.91,4.91,0,0,1,1.4-1.43l19.23,30.23A2.72,2.72,0,0,1,376.28,412.49Z" transform="translate(-327.29 -119.66)"/><path class="cls-6" d="M377.72,386.09s1.62-.29,2,1.14-1.68,2.55-1.68,2.55S375.79,390.2,377.72,386.09Z" transform="translate(-327.29 -119.66)"/><path class="cls-6" d="M371.67,389.43a.57.57,0,0,1,.17-.8,7.42,7.42,0,0,1,5.82-1,.58.58,0,0,1-.34,1.11,6.24,6.24,0,0,0-4.86.88A.57.57,0,0,1,371.67,389.43Z" transform="translate(-327.29 -119.66)"/><path class="cls-6" d="M379.41,393.14a.59.59,0,0,1-.08-.4c.15-1-.9-2.85-1.6-3.81a.59.59,0,0,1,.12-.81.58.58,0,0,1,.81.13c.22.29,2.09,2.92,1.81,4.67a.58.58,0,0,1-.66.48A.55.55,0,0,1,379.41,393.14Z" transform="translate(-327.29 -119.66)"/><path class="cls-6" d="M376.29,387.61a21.51,21.51,0,0,1-1.32-2.47c-.77-1.69-.8-3.31-.07-4.23a1.76,1.76,0,0,1,1.8-.65,2.48,2.48,0,0,1,1.63,1.11l0,0c1.3,2,.49,6,.39,6.49l-.83-.18,0,0-.9.87A6.41,6.41,0,0,1,376.29,387.61Zm1-5.53,0,0a1.19,1.19,0,0,0-.82-.57.54.54,0,0,0-.58.19c-.35.45-.42,1.53.23,2.93a17.28,17.28,0,0,0,1.47,2.68C377.81,386,378.09,383.32,377.3,382.08Z" transform="translate(-327.29 -119.66)"/><path class="cls-6" d="M378,389.13l.67-1.06c1.08.68,2.88.84,3.57.31.17-.12.34-.34.18-.88A.7.7,0,0,0,382,387c-.72-.26-2.15.43-2.89.93l-.7-1c.25-.17,2.47-1.62,4-1.07a2,2,0,0,1,1.22,1.36,1.92,1.92,0,0,1-.63,2.24C381.78,390.32,379.39,390,378,389.13Z" transform="translate(-327.29 -119.66)"/><path class="cls-11" d="M359.37,385.91l-.56-.88a7.7,7.7,0,0,0,5.76-1.42,9.89,9.89,0,0,0,3.94-6.88l.89-.4a10.75,10.75,0,0,1-4.35,8A8.48,8.48,0,0,1,359.37,385.91Z" transform="translate(-327.29 -119.66)"/><path class="cls-6" d="M375.94,390.39a.57.57,0,0,1,.88-.72l1.64,1.55a.58.58,0,1,1-.8.84L376,390.5A.31.31,0,0,1,375.94,390.39Z" transform="translate(-327.29 -119.66)"/><path class="cls-6" d="M376,392.93a.57.57,0,0,1,.07-.71.58.58,0,0,1,.82,0l1.63,1.56a.57.57,0,0,1,0,.81.58.58,0,0,1-.82,0L376.13,393A.44.44,0,0,1,376,392.93Z" transform="translate(-327.29 -119.66)"/><path class="cls-6" d="M376.18,395.43a.58.58,0,0,1,.07-.71.58.58,0,0,1,.82,0l1.63,1.56a.58.58,0,0,1-.79.84l-1.64-1.56Z" transform="translate(-327.29 -119.66)"/><path class="cls-6" d="M376.51,398.06a.57.57,0,0,1,.07-.71.58.58,0,0,1,.82,0l1.63,1.56a.57.57,0,0,1,0,.81.58.58,0,0,1-.82,0l-1.63-1.55A.44.44,0,0,1,376.51,398.06Z" transform="translate(-327.29 -119.66)"/><path class="cls-6" d="M377.08,400.76a.59.59,0,0,1,.07-.71.58.58,0,0,1,.82,0l1.64,1.56a.58.58,0,1,1-.8.84l-1.64-1.56Z" transform="translate(-327.29 -119.66)"/><path class="cls-12" d="M430.06,320.26a1.36,1.36,0,0,1,0,.2l-.5.94a386.45,386.45,0,0,1-24.94,39.79c-1.8,2.49-3.66,4.95-5.55,7.34-.83,1.05-1.67,2.09-2.51,3.11a44,44,0,0,1-10.24,9.46l-1.13.72c-.73.44-1.48.88-2.26,1.31l-1.13.62s-5.65-5.94-8.27-11.69l1.91-3.15.75-1.22,2.74-4.55c4.55-7.6,10.67-18,13-22.87,1.67-3.53,3.66-7.46,5.89-11.33q.63-1.1,1.29-2.19l.15-.25a69.7,69.7,0,0,1,10-13.24l-8.07-47.64-.5-3,17.84-6.3,1-.36,4.25-1.49s.34,1.56.87,4.25c.06.33.13.67.2,1C427.13,272,432.43,302.53,430.06,320.26Z" transform="translate(-327.29 -119.66)"/><path class="cls-14" d="M386.3,381.1l-1.13.72-6.91-9.15-.64-.85-2.2-2.91.75-1.22,2.15,2.85.63.84Z" transform="translate(-327.29 -119.66)"/><path class="cls-14" d="M430.06,320.26c0,.07,0,.13,0,.2l-.51.94a22.3,22.3,0,0,1-7.34-2.89.6.6,0,1,1,.66-1A21.29,21.29,0,0,0,430.06,320.26Z" transform="translate(-327.29 -119.66)"/><path class="cls-14" d="M413.83,314.92c-.09.08-9,9-34.88,56.46l-.69,1.29-.64-.85.7-1.28c24-44,33.16-54.56,34.64-56.11-2.11-7.78-8.56-47.66-8.83-49.37a.48.48,0,0,1,.4-.55.47.47,0,0,1,.55.4c.07.42,6.87,42.51,8.88,49.53A.48.48,0,0,1,413.83,314.92Z" transform="translate(-327.29 -119.66)"/><path class="cls-14" d="M404.6,361.19c-2.6,3.58-5.3,7.11-8.06,10.45-.5-7.3-1.85-31.44,1.22-42.69a15.82,15.82,0,0,1,1.29-3.43l.15,1Z" transform="translate(-327.29 -119.66)"/><path class="cls-12" d="M371.18,242.79s-1.34,12.75,1.56,19.84,40.43,3.44,50-2.94c3.93-2.62-4.43-26.78-4.43-26.78Z" transform="translate(-327.29 -119.66)"/><path class="cls-14" d="M424.77,259.75a11.53,11.53,0,0,1-1.66-.42,10.64,10.64,0,0,1-2.47-1.2,12.5,12.5,0,0,1-2.21-1.8c-4.13-4.17-5.35-10.48-5.41-10.79a.48.48,0,0,1,1-.17c0,.07,1.28,6.63,5.48,10.6a11.35,11.35,0,0,0,1.71,1.36,10.83,10.83,0,0,0,2.36,1.12c.34.11.69.2,1.05.28C424.63,259.06,424.7,259.4,424.77,259.75Z" transform="translate(-327.29 -119.66)"/><path class="cls-14" d="M401.61,263.32a.48.48,0,0,1-.45.49h0a.48.48,0,0,1-.5-.44c-.09-1.75-.19-3.53-.3-5.31l-.06-.94c-.38-5.83-.86-11.54-1.22-15.58,0-.33-.06-.64-.09-.95-.08-.88-.15-1.67-.22-2.33l1-.16.21,2.35.09,1c.36,4,.84,9.67,1.22,15.46l.06,1C401.42,259.66,401.52,261.51,401.61,263.32Z" transform="translate(-327.29 -119.66)"/><path class="cls-14" d="M403,257.17a12.44,12.44,0,0,1-1.68.65c-.3.09-.62.17-.95.24a7.09,7.09,0,0,1-.91.12,3.3,3.3,0,0,1-1.62-.26,2,2,0,0,1-1.1-1.47c-.35-1.8-1.08-9.21-1.58-14.46,0-.32-.06-.64-.09-.94-.07-.84-.14-1.61-.2-2.25l.95-.12c.06.65.13,1.42.22,2.27,0,.3.05.62.08.94.5,5.24,1.23,12.65,1.57,14.39a1,1,0,0,0,.58.81,3.49,3.49,0,0,0,2,0c.32-.07.65-.17.95-.26a11.35,11.35,0,0,0,1.32-.52.48.48,0,0,1,.64.21A.45.45,0,0,1,403,257.17Z" transform="translate(-327.29 -119.66)"/><polygon class="cls-13" points="59.59 270.25 60.55 277.8 70.18 277.8 70.74 269.85 59.59 270.25"/><path class="cls-12" d="M399.05,259V388.66l-.14,2.06h-14.3c-.16-.94-.5-2.45-.95-4.4l-.32-1.33c-1.86-7.93-5-21.45-5.62-33.2-.8-16.79-.57-38.53-.57-38.53-1.64-12.48-4.2-39.5-5.47-53.33q0-.49-.09-1c-.43-4.65-.69-7.57-.69-7.57,2.3-1,6.48-.3,10.92,1l1,.28A133.56,133.56,0,0,1,399.05,259Z" transform="translate(-327.29 -119.66)"/><path class="cls-14" d="M399.05,385v1.33H383.66l-.32-1.33Z" transform="translate(-327.29 -119.66)"/><path class="cls-14" d="M399.05,316.17v1.24a22.81,22.81,0,0,1-5.38.56,42.1,42.1,0,0,1-6.42-.51.6.6,0,0,1,.2-1.18C387.53,316.29,394.53,317.43,399.05,316.17Z" transform="translate(-327.29 -119.66)"/><path class="cls-14" d="M386.05,386.32h-1c-.08-.41-.16-.85-.25-1.33-1.26-6.72-3.58-19.27-4.78-27.42-1.68-11.38-.89-42.93-.86-44.16-1.27-10.85-3.86-48-3.89-48.39a.5.5,0,0,1,.45-.52.49.49,0,0,1,.52.45c0,.38,2.61,37.6,3.88,48.38a.17.17,0,0,1,0,.07c0,.32-.84,32.56.85,44,1.21,8.21,3.55,20.9,4.8,27.56C385.89,385.47,386,385.91,386.05,386.32Z" transform="translate(-327.29 -119.66)"/><path class="cls-10" d="M401.14,410.34v.26c0,.38,0,.73,0,1,0,.65-.09,1.05-.09,1.05H379.3a11.36,11.36,0,0,1,0-2.08,10.87,10.87,0,0,1,3.87-8c4.11-3.17,2.52-2.51,3.36-4,.1-.16.84-2.62.92-2.78.7-1.51,1.35-2.22,5.24-2.22,5.16,0,5.61,2.51,6.16,3.83a23.52,23.52,0,0,1,.86,3.06c.13.55.26,1.13.39,1.73.32,1.5.61,3.06.82,4.3A22.69,22.69,0,0,1,401.14,410.34Z" transform="translate(-327.29 -119.66)"/><path class="cls-11" d="M401.14,410.34v.26c0,.38,0,.73,0,1a6.1,6.1,0,0,1-2.26-2.93c-1.34-3.66.72-8.05.81-8.23l0,0c.13.55.26,1.13.39,1.73a9.87,9.87,0,0,0-.27,6.13A5,5,0,0,0,401.14,410.34Z" transform="translate(-327.29 -119.66)"/><path class="cls-11" d="M401.14,410.6c0,1.23-.13,2.08-.13,2.08H379.3a11.36,11.36,0,0,1,0-2.08Z" transform="translate(-327.29 -119.66)"/><path class="cls-6" d="M390.39,396.78a.8.8,0,0,1-.26,0c-.55-.25-5.38-2.5-5.76-4.85a1.93,1.93,0,0,1,.69-1.81,1.78,1.78,0,0,1,1.76-.49c2.19.57,3.85,5.43,4.16,6.39a.63.63,0,0,1-.18.65A.59.59,0,0,1,390.39,396.78Zm-4-6a.93.93,0,0,0-.77.93c.16,1,2,2.3,3.68,3.23-.76-1.89-1.87-3.9-2.77-4.14Z" transform="translate(-327.29 -119.66)"/><path class="cls-6" d="M391.44,396.78a.59.59,0,0,1-.41-.16.63.63,0,0,1-.18-.65c.31-1,2-5.82,4.16-6.39a1.78,1.78,0,0,1,1.76.49,1.93,1.93,0,0,1,.69,1.81c-.38,2.35-5.21,4.6-5.76,4.85A.75.75,0,0,1,391.44,396.78Zm4-6-.14,0c-.9.24-2,2.25-2.77,4.14,1.68-.93,3.52-2.24,3.68-3.23a.93.93,0,0,0-.77-.93Z" transform="translate(-327.29 -119.66)"/><path class="cls-6" d="M390.9,395s-1-.48-1.09.91c-.07,1.12.73,1.37,1.06,1.18a.94.94,0,0,0,1-.35C392.25,396.16,392,394.42,390.9,395Z" transform="translate(-327.29 -119.66)"/><path class="cls-6" d="M386.46,398.76a.62.62,0,0,1-.5-1,5.31,5.31,0,0,1,5.09-2,.62.62,0,0,1,.48.73.61.61,0,0,1-.72.49,4,4,0,0,0-3.86,1.55A.61.61,0,0,1,386.46,398.76Z" transform="translate(-327.29 -119.66)"/><path class="cls-6" d="M395.94,399.38a.61.61,0,0,1-.56-.36c-1-2.21-4.51-2.74-4.54-2.75a.61.61,0,0,1-.53-.7.62.62,0,0,1,.71-.52c.17,0,4.2.64,5.48,3.46a.62.62,0,0,1-.3.82A.6.6,0,0,1,395.94,399.38Z" transform="translate(-327.29 -119.66)"/><path class="cls-6" d="M393.39,400.37l-.16,0a10.72,10.72,0,0,0-5-.1.62.62,0,0,1-.33-1.2,12,12,0,0,1,5.67.1.64.64,0,0,1,.45.76A.63.63,0,0,1,393.39,400.37Z" transform="translate(-327.29 -119.66)"/><path class="cls-6" d="M392.46,402.33l-.16,0a10.74,10.74,0,0,0-5-.1.62.62,0,0,1-.33-1.2,12.15,12.15,0,0,1,5.67.1.64.64,0,0,1,.45.76A.62.62,0,0,1,392.46,402.33Z" transform="translate(-327.29 -119.66)"/><path class="cls-6" d="M391.37,404.56l-.16,0a10.74,10.74,0,0,0-5-.1.62.62,0,0,1-.33-1.2,12.13,12.13,0,0,1,5.67.1.64.64,0,0,1,.45.76A.63.63,0,0,1,391.37,404.56Z" transform="translate(-327.29 -119.66)"/><path class="cls-14" d="M385.45,245.54a25,25,0,0,1-2.66,7.1,15.58,15.58,0,0,1-5,5.49,11.23,11.23,0,0,1-6.15,1.8q0-.49-.09-1a10.36,10.36,0,0,0,5.72-1.65,14.4,14.4,0,0,0,4.51-5,24.66,24.66,0,0,0,2.68-7,.48.48,0,1,1,.95.17Z" transform="translate(-327.29 -119.66)"/><path class="cls-10" d="M449.6,200.23c0,2.27-2.51,5.37-6.11,8.52l-.74.65a95.41,95.41,0,0,1-13.46,9.26c-4.22,2.42-10.12,5.14-15.69,5.86-5.27.69-10.25-.42-13.28-5.26a16.47,16.47,0,0,1-1-1.76c-4.93-10.33-2-27.8-2-27.8l12.52-22.23c8.87,8,6.59,28.64,9.84,31l.17.11a3.09,3.09,0,0,0,1.42.44c3.57.29,9.84-3.42,16.14-5.08l1-.25,1-.19C445,192.48,449.52,195.36,449.6,200.23Z" transform="translate(-327.29 -119.66)"/><path class="cls-11" d="M443.49,208.75l-.74.65a17,17,0,0,1-5-10,27.29,27.29,0,0,1-.3-5.41l1-.25a26.87,26.87,0,0,0,.27,5.53A15.8,15.8,0,0,0,443.49,208.75Z" transform="translate(-327.29 -119.66)"/><path class="cls-11" d="M421.28,199c-2.3,1.54-5.45,4-6.91,6.54a.51.51,0,0,1-.44.25.47.47,0,0,1-.25-.07.49.49,0,0,1-.18-.68,19.47,19.47,0,0,1,5-5.26,29.83,29.83,0,0,0-4.21,1.19.57.57,0,0,1-.18,0,.51.51,0,0,1-.47-.32.52.52,0,0,1,.3-.65,28,28,0,0,1,5.95-1.47A3.09,3.09,0,0,0,421.28,199Z" transform="translate(-327.29 -119.66)"/><path class="cls-11" d="M413.6,224.52c-5.27.69-10.25-.42-13.28-5.26a16.47,16.47,0,0,1-1-1.76c1.82-.61,5.5-1.19,10.15,1.56C412.53,220.84,413.47,222.85,413.6,224.52Z" transform="translate(-327.29 -119.66)"/><path class="cls-13" d="M459.39,183.8s-4.52,15.56-12.72,17.44l-3.81-4.78S450.77,184.6,459.39,183.8Z" transform="translate(-327.29 -119.66)"/><path class="cls-5" d="M442.66,200.33l.63.36a.91.91,0,0,0,1-.11c2.63-2.35,15.39-13.78,17.57-16a.88.88,0,0,0,.22-.79l-2-9.39a.92.92,0,0,0-.38-.56l-.87-.58,2,10.13Z" transform="translate(-327.29 -119.66)"/><path class="cls-4" d="M442.61,200.19l-2.26-9.29a1.59,1.59,0,0,1,.54-1.32l17.3-16.11c.39-.37.78-.37.87,0l2.26,9.29a1.59,1.59,0,0,1-.55,1.31l-17.3,16.12C443.08,200.55,442.69,200.55,442.61,200.19Z" transform="translate(-327.29 -119.66)"/><path class="cls-5" d="M445.7,195.75,444.06,189a1.59,1.59,0,0,1,.54-1.32l12.83-12c.39-.36.78-.36.87,0l1.64,6.76a1.59,1.59,0,0,1-.55,1.31l-12.82,11.95C446.18,196.12,445.79,196.12,445.7,195.75Z" transform="translate(-327.29 -119.66)"/><path class="cls-5" d="M443.39,195c-.6.56-1.2.56-1.33,0a2.46,2.46,0,0,1,.84-2c.6-.56,1.2-.56,1.34,0A2.47,2.47,0,0,1,443.39,195Z" transform="translate(-327.29 -119.66)"/><path class="cls-13" d="M444,186.92s-1.56-3.56.74-5.31,7.05-2.21,7.05-2.21c1.85,1.46-1.27,3.14-5.21,4.85Z" transform="translate(-327.29 -119.66)"/><path class="cls-13" d="M451.68,194s2.4,1.09,3.19-.27-.64-4.8-1.22-6-1.21,1.81-.92,3.14a10.12,10.12,0,0,1,.11,2Z" transform="translate(-327.29 -119.66)"/><path class="cls-13" d="M454.92,190.6s2.53,1.05,3.47-.57-.76-5.69-1.46-7.08-1.54,2.17-1.09,3.73a2.58,2.58,0,0,1-.08,2.25Z" transform="translate(-327.29 -119.66)"/><path class="cls-13" d="M456.68,188.93s2.24.93,3.06-.5-.67-5-1.28-6.25-1.36,1.91-1,3.29a2.32,2.32,0,0,1-.07,2Z" transform="translate(-327.29 -119.66)"/><path class="cls-13" d="M453.17,193.07s2.53,1.05,3.47-.56-.76-5.69-1.46-7.08-1.54,2.17-1.09,3.72a2.61,2.61,0,0,1-.08,2.26Z" transform="translate(-327.29 -119.66)"/><path class="cls-6" d="M370.55,254l-1.19,7.27s13.74,3.07,22.41.85,29.56-4.31,33.13-4.45L422.61,248S395.8,256.4,370.55,254Z" transform="translate(-327.29 -119.66)"/><path class="cls-11" d="M399.92,162.89s5.11-10.38-5.74-16.14c-7.58-4-22.23-4.76-26.7,4.46-4.16,8.57,5.19,15.79,5.19,15.79S392.7,171.28,399.92,162.89Z" transform="translate(-327.29 -119.66)"/><path class="cls-4" d="M382.27,150.88s-9.37,1.27-6,6.27c1.8,2.65,12,4.09,12,4.09S390.24,152.08,382.27,150.88Z" transform="translate(-327.29 -119.66)"/><path class="cls-10" d="M421.53,245.4s-34.73,11.66-49.69,5.84c0,0-4.69-1.46-6.57-10.65l-.18-.93c-.79-4.54-.91-10.83.41-19.51,1.58-10.41-.61-15.72-1.55-26.09,0-.36-.06-.74-.1-1.11-.1-1.12-.19-2.3-.28-3.56-1-13.68-5.37-19.53,1.45-23.6a101.5,101.5,0,0,1,15.76-7.17s7.61,2.41,13,0c0,0,8.16,4,14.43,6.28s4.21,18.86,6.19,28.37,5.32,17.09,8.35,32.87C425.48,240.58,421.53,245.4,421.53,245.4Z" transform="translate(-327.29 -119.66)"/><path class="cls-11" d="M422.34,224.73a.5.5,0,0,1-.5-.46c-.29-4-3.31-14.09-5.12-20.12-.36-1.18-.66-2.19-.88-3-1.31-4.52-2.8-15.15-2.86-15.6a.49.49,0,0,1,.42-.56.5.5,0,0,1,.57.42c0,.11,1.54,11,2.83,15.47l.87,2.93c1.82,6.08,4.87,16.25,5.17,20.34a.5.5,0,0,1-.46.53Z" transform="translate(-327.29 -119.66)"/><path class="cls-11" d="M423.28,240.58s1.48,4.54-.61,7.6c0,0-31.2,10.83-52.12,5.77a13.79,13.79,0,0,1-2.41-6.93S393.3,253.28,423.28,240.58Z" transform="translate(-327.29 -119.66)"/><path class="cls-11" d="M391,173.21a8.16,8.16,0,0,0,7.61-5.24.38.38,0,1,0-.72-.24h0a7.27,7.27,0,0,1-7.47,4.7c-5.91-.37-13.51-4.27-13.58-4.31a.37.37,0,0,0-.51.16.37.37,0,0,0,.16.51c.31.16,7.81,4,13.88,4.4Z" transform="translate(-327.29 -119.66)"/><path class="cls-11" d="M411.8,218.13s4,12.27,2.54,19.09c0,0-13.2,7.87-32.87,3.92,0,0-1.11-12.14-1.88-19.95C379.59,221.19,399.68,217.94,411.8,218.13Z" transform="translate(-327.29 -119.66)"/><path class="cls-6" d="M388.75,227.56a.28.28,0,0,0,.28-.27c1.21-26.22-6.12-65.55-6.2-65.95a.28.28,0,0,0-.33-.22.3.3,0,0,0-.23.33c.08.39,7.4,39.66,6.19,65.82a.29.29,0,0,0,.27.29Z" transform="translate(-327.29 -119.66)"/><path class="cls-6" d="M406.27,225.8h0a.29.29,0,0,0,.27-.3c-.95-31.66-11.7-64-11.81-64.29a.28.28,0,0,0-.54.18c.11.32,10.83,32.55,11.78,64.13A.29.29,0,0,0,406.27,225.8Z" transform="translate(-327.29 -119.66)"/><path class="cls-4" d="M404.69,163.26S406.74,183,399,196.47c-10.29,18-33.54,23.68-33.54,23.68a12.13,12.13,0,0,1,.06-7.26s21.51-4,30.52-22a47.07,47.07,0,0,0,3.84-29.24S403.09,161.66,404.69,163.26Z" transform="translate(-327.29 -119.66)"/><path class="cls-4" d="M386.79,212.75l.4,0a16.27,16.27,0,0,0,2-.28c.35-.07.7-.15,1-.24.53-.14,1.05-.31,1.56-.49s.73-.28,1.08-.44a21.6,21.6,0,0,0,11.21-11.67c.14-.37.28-.74.39-1.12a16.09,16.09,0,0,0,.53-2c.07-.35.13-.69.18-1a16.81,16.81,0,0,0,.14-1.88c0-.13,0-.27,0-.4,0-6.4-9.26-10.23-9.26-10.23l-2.47,4.33-.56,1-4.41,7.71-7.3,4.75-.94.62L376,204.11S380.4,213.09,386.79,212.75Z" transform="translate(-327.29 -119.66)"/><g class="cls-15"><path class="cls-5" d="M389.17,212.44c.35-.07.7-.15,1-.24-1.76-4.82-5.83-8.94-8.9-11.53l-.94.62C383.34,203.77,387.41,207.81,389.17,212.44Z" transform="translate(-327.29 -119.66)"/></g><g class="cls-15"><path class="cls-5" d="M396.78,192.14c2.82,2.49,5.58,3.93,8.2,4.3.07-.35.13-.69.18-1-4.72-.66-9.07-5.09-11.58-8.18l-.56,1A34.69,34.69,0,0,0,396.78,192.14Z" transform="translate(-327.29 -119.66)"/></g><path class="cls-5" d="M396.05,182.89s7.37,3.86,3.14,10.3S387.62,207.52,383.13,208s-7.13-3.83-7.13-3.83Z" transform="translate(-327.29 -119.66)"/><g class="cls-15"><path class="cls-5" d="M391.77,211.71c.36-.14.73-.28,1.08-.44a12.22,12.22,0,0,1,3-7.69,12.66,12.66,0,0,1,8.22-4c.14-.37.28-.74.39-1.12a13.86,13.86,0,0,0-9.4,4.4A13.26,13.26,0,0,0,391.77,211.71Z" transform="translate(-327.29 -119.66)"/></g><path class="cls-13" d="M393.44,157.14l-.73,3.3c-.45.22-.94.33-1.34.56-7,4-12.38-1.68-12.28-2l3.05-12.85,9.95,9.7Z" transform="translate(-327.29 -119.66)"/><path class="cls-4" d="M393.46,157l-.75,3.4a11.58,11.58,0,0,1-1.34.56c-4.46-3-6.89-8.91-6.89-8.91l7.61,3.73Z" transform="translate(-327.29 -119.66)"/><path class="cls-4" d="M380.3,133.47s-3.48-2.65-1.78-5.84a4.39,4.39,0,0,1,5.06-2.19s.05-3.5,3-4.5,4.7,1.74,4.7,1.74,1.33-3.36,4.3-3a3.18,3.18,0,0,1,2.87,3.24s2.84-2.46,5.93-.48.75,4.76.75,4.76a2.64,2.64,0,0,1,1.71,3.65c-.55,1.51-2.94,2.25-2.94,2.25Z" transform="translate(-327.29 -119.66)"/><path class="cls-4" d="M381.89,132.5a3.35,3.35,0,0,0-3.44,2.37,3.54,3.54,0,0,0,.78,4.24,3.62,3.62,0,0,0-1.07,3.91,2.45,2.45,0,0,0,3.12,1.48s-2.5,2.22-.71,4.18,5.14-2.31,5.14-2.31Z" transform="translate(-327.29 -119.66)"/><path class="cls-4" d="M401.11,130.12s7.8,2.83,2.54,7.73C403.65,137.85,400.45,132.26,401.11,130.12Z" transform="translate(-327.29 -119.66)"/><path class="cls-4" d="M401.49,135.76s2.58-.34,3.33,1.7a2.64,2.64,0,0,1-1.27,3.14,3.32,3.32,0,0,1,.34,3.57c-.94,2.23-2.5,1.77-2.5,1.77s1.5,1.45-.33,3.38-4.13-1.59-4.13-1.59Z" transform="translate(-327.29 -119.66)"/><path class="cls-16" d="M400.31,143.31s2.36-1.81,2.93.64-1.22,6.75-3.92,5.39Z" transform="translate(-327.29 -119.66)"/><path class="cls-13" d="M401.07,151.62s-1.49,6.83-8.58,5.25-10.65-8.16-10.84-8.47h0l.24-1.45,1.23-7.53.66-4s.67-7.36,7.77-7.18c5.19.14,9.67,2,11.46,5.1a6.36,6.36,0,0,1,.77,3.94l-1.35,7.2-.33,1.76Z" transform="translate(-327.29 -119.66)"/><path class="cls-4" d="M394.58,151.19a2.09,2.09,0,0,0,.93-.05.2.2,0,1,0-.14-.37,2.07,2.07,0,0,1-1.54-.23.2.2,0,0,0-.27.08.2.2,0,0,0,.09.27A2.63,2.63,0,0,0,394.58,151.19Z" transform="translate(-327.29 -119.66)"/><path class="cls-6" d="M398.64,147a17.13,17.13,0,0,1-6.65-1.6s0,4.34,3.52,4.28A3.34,3.34,0,0,0,398.64,147Z" transform="translate(-327.29 -119.66)"/><path class="cls-4" d="M396.52,145.14a10.76,10.76,0,0,1-1.69-.89.3.3,0,0,1,.32-.5c1,.65,2.17,1.13,2.37,1h0a.17.17,0,0,0,0-.07c-.08-2.56-1.27-3.11-1.29-3.11a.29.29,0,0,1-.17-.34l.51-2.26a.3.3,0,0,1,.36-.22.28.28,0,0,1,.22.35l-.47,2c.44.3,1.36,1.2,1.43,3.51a.64.64,0,0,1-.31.61A1.68,1.68,0,0,1,396.52,145.14Z" transform="translate(-327.29 -119.66)"/><path class="cls-4" d="M394.61,137.82a1.39,1.39,0,0,0-.24-2.73c-1.36-.09-3.07,0-4,1.13-1.7,2,2.56,1.93,4.2,1.61Z" transform="translate(-327.29 -119.66)"/><path class="cls-4" d="M398.53,139a1.29,1.29,0,0,1,1.2-2.24c1.19.42,2.6,1.16,3,2.42.73,2.31-2.87.71-4.15-.16Z" transform="translate(-327.29 -119.66)"/><path class="cls-4" d="M384.44,141.85a4.27,4.27,0,0,0-2.75-3.29,6,6,0,0,1-.4-3.06c.17-1.48,0-3,.88-4.52,0,0,2.27-3,9.37-2.78,5.19.14,9.67,2,11.45,5.1a1.58,1.58,0,0,1-.44.55c-1.79,1.53-4.48.6-7.3-1a6.8,6.8,0,0,0-5.77-.21A1.39,1.39,0,0,1,390,134a3.14,3.14,0,0,1-.39,1.41c-.29.55-.75,1.23-1.26,1.12,0,0,.73,1.7-.29,2.68s-1.46.94-1.46.94a2.32,2.32,0,0,1-.2,2.42C385.77,143.23,384.44,141.85,384.44,141.85Z" transform="translate(-327.29 -119.66)"/><g class="cls-17"><path class="cls-16" d="M393,143.28c-.11.5-1.22.68-2.48.4s-2.2-.9-2.09-1.4,1.22-.67,2.48-.4S393.07,142.79,393,143.28Z" transform="translate(-327.29 -119.66)"/></g><g class="cls-17"><path class="cls-16" d="M402.09,146.2l-.56-.09c-1.26-.28-2.2-.91-2.09-1.4s1.22-.68,2.48-.4l.5.13Z" transform="translate(-327.29 -119.66)"/></g><path class="cls-4" d="M384.48,146.12c-.05.07-1.41,1.95-2.83,2.28h0l.24-1.45A5,5,0,0,0,384.48,146.12Z" transform="translate(-327.29 -119.66)"/><path class="cls-13" d="M384.27,141.1s-1.93-4.26-4.56-1.82c-2.17,2-.41,8.88,3.32,7.48Z" transform="translate(-327.29 -119.66)"/><path class="cls-6" d="M380.52,145a.64.64,0,1,0,1.25.27.64.64,0,0,0-1.25-.27Z" transform="translate(-327.29 -119.66)"/><path class="cls-4" d="M382.89,145.57h0a.28.28,0,0,0,.31-.26,5.36,5.36,0,0,0-2.14-4.91.29.29,0,0,0-.33.47h0a4.79,4.79,0,0,1,1.9,4.38A.28.28,0,0,0,382.89,145.57Z" transform="translate(-327.29 -119.66)"/><path class="cls-4" d="M380.65,143.3a.32.32,0,0,0,.19,0h0a2.27,2.27,0,0,1,1.59-.24.29.29,0,0,0,.39-.12.3.3,0,0,0-.13-.39,2.75,2.75,0,0,0-2.11.24.29.29,0,0,0-.13.39A.3.3,0,0,0,380.65,143.3Z" transform="translate(-327.29 -119.66)"/><path class="cls-4" d="M393.48,140.43c-.13.7-.56,1.22-1,1.14s-.61-.7-.48-1.41.56-1.22.95-1.14S393.6,139.72,393.48,140.43Z" transform="translate(-327.29 -119.66)"/><path class="cls-4" d="M400.46,141.71c-.13.71-.55,1.22-.95,1.15s-.61-.71-.48-1.41.56-1.22,1-1.15S400.59,141,400.46,141.71Z" transform="translate(-327.29 -119.66)"/><path class="cls-11" d="M376.77,157.65s10,4.4,12,4.38a12.18,12.18,0,0,1-6.6,2.79c-5.3.52-14.24-.63-14.24-.63A12.9,12.9,0,0,1,376.77,157.65Z" transform="translate(-327.29 -119.66)"/><path class="cls-11" d="M393.46,156.89a5.51,5.51,0,0,1-4.71,5.14s.89,3.07,4.91,2.5a11.44,11.44,0,0,0,6.26-2.87S396.63,156.89,393.46,156.89Z" transform="translate(-327.29 -119.66)"/><path class="cls-10" d="M381.17,240.09s-15.94,2.72-26.91-3.75c-6.23-3.68-10.85-10.33-10.05-22.11,0-.18,0-.36,0-.54,2.59-31.82,19-46.22,19-46.22,6.15-1.6,13,0,3.5,40.55-2.78,16.43,13.07,17.78,13.07,17.78Z" transform="translate(-327.29 -119.66)"/><path class="cls-11" d="M366.44,211.77l-.15,0a.49.49,0,0,1-.32-.63c.06-.2,6.39-19.79,6.5-30.15a.49.49,0,0,1,.5-.49.5.5,0,0,1,.5.5c-.11,10.51-6.49,30.25-6.55,30.45A.5.5,0,0,1,366.44,211.77Z" transform="translate(-327.29 -119.66)"/><path class="cls-11" d="M372.16,189.21a.47.47,0,0,1-.27-.08.5.5,0,0,1-.16-.68l2.92-4.74a.51.51,0,0,1,.69-.16.5.5,0,0,1,.16.69L372.58,189A.5.5,0,0,1,372.16,189.21Z" transform="translate(-327.29 -119.66)"/><path class="cls-11" d="M377.79,241.16a.5.5,0,0,1-.46-.3c-1.83-4.3-1.41-16.43-1.39-16.94a.49.49,0,0,1,.51-.48.5.5,0,0,1,.49.51c0,.13-.43,12.42,1.31,16.51a.5.5,0,0,1-.26.66A.45.45,0,0,1,377.79,241.16Z" transform="translate(-327.29 -119.66)"/><path class="cls-11" d="M381.32,240.57a29.65,29.65,0,0,1-8.16,1.07,29.19,29.19,0,0,1-7.89-1l-.18-.93a.53.53,0,0,1,.39,0,30.66,30.66,0,0,0,15.55,0,.5.5,0,0,1,.29.95Z" transform="translate(-327.29 -119.66)"/><path class="cls-11" d="M376.66,224.44l-.63,0c-2.14-.14-5.25-1.08-7.92-4.77a.5.5,0,0,1,.82-.58c4.64,6.43,10.72,3.85,10.78,3.82a.5.5,0,1,1,.4.92A9.15,9.15,0,0,1,376.66,224.44Z" transform="translate(-327.29 -119.66)"/><path class="cls-11" d="M354.26,236.34c-6.23-3.68-10.85-10.33-10.05-22.11C348.6,219.07,355.65,228.32,354.26,236.34Z" transform="translate(-327.29 -119.66)"/><rect class="cls-7" x="102.35" y="20.06" width="27.74" height="23.1" rx="0.79"/><path class="cls-7" d="M449.27,161.9l2.43,4.87a.25.25,0,0,0,.46,0l1.58-4.83Z" transform="translate(-327.29 -119.66)"/><path class="cls-6" d="M449.06,155.36h0L434.92,153a.19.19,0,0,1-.17-.17l-.93-6.1a.22.22,0,0,1,.05-.17.24.24,0,0,1,.16-.07h16.8a.21.21,0,0,1,.16.08.22.22,0,0,1,.05.17l-1.77,8.48A.21.21,0,0,1,449.06,155.36Zm-13.92-2.78,13.75,2.32,1.68-8H434.28Z" transform="translate(-327.29 -119.66)"/><path class="cls-6" d="M450.23,149.35h0l-15.86-.47a.17.17,0,0,1-.17-.18.18.18,0,0,1,.18-.17l15.86.46a.19.19,0,0,1,.17.19A.18.18,0,0,1,450.23,149.35Z" transform="translate(-327.29 -119.66)"/><path class="cls-6" d="M449.51,152.34h0l-14.86-1.45a.18.18,0,0,1-.16-.19.18.18,0,0,1,.2-.16L449.53,152a.18.18,0,0,1,.16.19A.18.18,0,0,1,449.51,152.34Z" transform="translate(-327.29 -119.66)"/><path class="cls-6" d="M450.83,146.88h-.05a.23.23,0,0,1-.16-.26l.67-3a.21.21,0,0,1,.21-.17h2.83a.22.22,0,0,1,0,.43h-2.66l-.63,2.8A.21.21,0,0,1,450.83,146.88Z" transform="translate(-327.29 -119.66)"/><rect class="cls-6" x="125.28" y="23.48" width="3.13" height="1.11" rx="0.51"/><path class="cls-6" d="M448.6,157.4h-13a.21.21,0,0,1-.21-.22.21.21,0,0,1,.21-.21h12.79l.42-1.87a.21.21,0,0,1,.26-.16.22.22,0,0,1,.16.25l-.46,2A.22.22,0,0,1,448.6,157.4Z" transform="translate(-327.29 -119.66)"/><path class="cls-6" d="M439.94,159.51a1.15,1.15,0,1,1,1.14-1.15A1.14,1.14,0,0,1,439.94,159.51Zm0-1.93a.78.78,0,0,0-.79.78.79.79,0,1,0,1.57,0A.78.78,0,0,0,439.94,157.58Z" transform="translate(-327.29 -119.66)"/><path class="cls-6" d="M444.62,159.51a1.15,1.15,0,1,1,1.14-1.15A1.14,1.14,0,0,1,444.62,159.51Zm0-1.93a.78.78,0,0,0-.79.78.79.79,0,1,0,1.57,0A.78.78,0,0,0,444.62,157.58Z" transform="translate(-327.29 -119.66)"/><path class="cls-4" d="M479.07,369.71h0a.59.59,0,0,1-.57-.62,62.26,62.26,0,0,1,1.1-9c1.38-6.6,3.68-9.95,6.84-9.95s5.4,3.35,6.66,10a63.17,63.17,0,0,1,.94,9,.59.59,0,0,1-.59.61h0a.57.57,0,0,1-.59-.57c-.14-5.47-1.48-17.79-6.42-17.79s-6.53,12.33-6.76,17.8A.6.6,0,0,1,479.07,369.71Z" transform="translate(-327.29 -119.66)"/><polygon class="cls-14" points="179.43 295.51 136.59 295.51 142.49 247.83 173.53 247.83 179.43 295.51"/><polygon class="cls-12" points="177.26 295.51 134.42 295.51 140.32 247.83 171.36 247.83 177.26 295.51"/><polygon class="cls-14" points="155.84 279.82 162.01 283.06 160.83 276.19 165.82 271.33 158.92 270.33 155.84 264.09 152.76 270.33 145.87 271.33 150.85 276.19 149.68 283.06 155.84 279.82"/><circle class="cls-14" cx="149.02" cy="250.22" r="1.46"/><circle class="cls-14" cx="164" cy="250.22" r="1.46"/><path class="cls-4" d="M476.35,369.71h0a.6.6,0,0,1-.59-.64,63.44,63.44,0,0,1,1.14-9.28c1.42-6.83,3.8-10.29,7.07-10.29s5.59,3.46,6.88,10.3a62.52,62.52,0,0,1,1,9.28.6.6,0,0,1-.6.63h0a.61.61,0,0,1-.62-.59c-.13-5.65-1.52-18.4-6.63-18.4s-6.75,12.76-7,18.41A.61.61,0,0,1,476.35,369.71Z" transform="translate(-327.29 -119.66)"/><path class="cls-4" d="M445.48,363.54h0a.67.67,0,0,1-.65-.7,71.28,71.28,0,0,1,1.25-10.2c1.57-7.5,4.18-11.31,7.77-11.31s6.13,3.81,7.56,11.32a71.43,71.43,0,0,1,1.07,10.2.68.68,0,0,1-.67.69h0a.67.67,0,0,1-.67-.66c-.16-6.2-1.68-20.2-7.29-20.2s-7.42,14-7.68,20.22A.68.68,0,0,1,445.48,363.54Z" transform="translate(-327.29 -119.66)"/><polygon class="cls-8" points="149.59 295.51 100.93 295.51 107.63 241.35 142.89 241.35 149.59 295.51"/><polygon class="cls-7" points="147.13 295.51 98.47 295.51 105.17 241.35 140.43 241.35 147.13 295.51"/><path class="cls-8" d="M451.64,401.34h-.11A11.34,11.34,0,0,1,440.21,390v-.09a11.35,11.35,0,0,1,11.34-11.32h.12A11.35,11.35,0,0,1,463,389.93V390a11.35,11.35,0,0,1-11.35,11.32Zm0-.78h0A10.57,10.57,0,0,0,462.21,390v-.09a10.58,10.58,0,0,0-10.54-10.6h-.11A10.6,10.6,0,0,0,441,389.88V390a10.57,10.57,0,0,0,10.55,10.59Z" transform="translate(-327.29 -119.66)"/><path class="cls-8" d="M451.79,397.51h0a.36.36,0,0,1-.27-.12L446,391.88a4.54,4.54,0,0,1-1.32-3.21,4.49,4.49,0,0,1,1.33-3.2,3.34,3.34,0,0,1,2.69-1,4.65,4.65,0,0,1,3.09,1.95,4.6,4.6,0,0,1,3.1-1.93,3.32,3.32,0,0,1,2.68,1,4.54,4.54,0,0,1,0,6.41l-5.52,5.49A.36.36,0,0,1,451.79,397.51Z" transform="translate(-327.29 -119.66)"/><circle class="cls-8" cx="115.06" cy="244.07" r="1.66"/><path class="cls-8" d="M461,363.73a1.67,1.67,0,1,1-1.66-1.66A1.66,1.66,0,0,1,461,363.73Z" transform="translate(-327.29 -119.66)"/><path class="cls-4" d="M442.39,363.54h0a.69.69,0,0,1-.67-.73A73.39,73.39,0,0,1,443,352.26c1.62-7.75,4.32-11.68,8-11.68s6.35,3.93,7.82,11.7a71.57,71.57,0,0,1,1.1,10.54.69.69,0,0,1-.68.72h0a.7.7,0,0,1-.7-.68c-.16-6.41-1.73-20.89-7.54-20.89s-7.66,14.49-7.94,20.91A.69.69,0,0,1,442.39,363.54Z" transform="translate(-327.29 -119.66)"/><path class="cls-2" d="M644.89,152.12h0l-3.44-.09a.32.32,0,0,1-.21-.1.31.31,0,0,1-.09-.22l.07-2.3a17.39,17.39,0,0,1-4.14-.95,9.48,9.48,0,0,1-1.94-1,.29.29,0,0,1-.11-.38l2-4.15a.3.3,0,0,1,.19-.16.31.31,0,0,1,.25,0,11.33,11.33,0,0,0,3.4,1.4,10.08,10.08,0,0,0,2,.28,4.37,4.37,0,0,0,1.61-.17c.28-.12.33-.26.33-.4,0-.5-1-.79-2.2-1.07l-.42-.1a15.8,15.8,0,0,1-4.1-1.4,4.94,4.94,0,0,1-2-2,5.06,5.06,0,0,1-.52-2.48c.09-3,2.45-5.23,6.18-5.73l.07-2.4a.27.27,0,0,1,.09-.21.31.31,0,0,1,.22-.09l3.44.1a.3.3,0,0,1,.29.31l-.06,2.34a14.34,14.34,0,0,1,1.66.33,11.16,11.16,0,0,1,3.1,1.24.3.3,0,0,1,.12.38l-1.85,4.13a.35.35,0,0,1-.18.16.33.33,0,0,1-.24,0l-.34-.18a10.14,10.14,0,0,0-4.25-1.19h-.29c-.74,0-1.64.13-1.66.72,0,.08,0,.2.24.35a8.24,8.24,0,0,0,2.34.74c.66.15,1.41.32,2.15.55,1.36.42,3.27,1.19,4.11,3h0a5.05,5.05,0,0,1,.43,2.28c-.09,2.92-2.32,5.08-5.86,5.68l-.07,2.46a.27.27,0,0,1-.09.21A.32.32,0,0,1,644.89,152.12Zm-3.13-.69,2.84.08.06-2.41a.31.31,0,0,1,.26-.29c3.43-.5,5.52-2.42,5.59-5.14a4.33,4.33,0,0,0-.37-2h0c-.56-1.2-1.75-2-3.74-2.66-.71-.22-1.46-.39-2.11-.54a8.21,8.21,0,0,1-2.55-.84,1,1,0,0,1-.49-.86c0-.59.42-1.29,2.26-1.31h.31a10.73,10.73,0,0,1,4.51,1.26l.06,0,1.61-3.58a11.16,11.16,0,0,0-2.7-1,14,14,0,0,0-1.87-.35.31.31,0,0,1-.27-.31l.07-2.31-2.84-.08-.07,2.36a.29.29,0,0,1-.26.29c-3.62.4-5.82,2.34-5.9,5.18a4.08,4.08,0,0,0,2.23,3.94,14.8,14.8,0,0,0,3.94,1.34l.42.1c1.26.3,2.69.65,2.67,1.68a1,1,0,0,1-.71.94,4.75,4.75,0,0,1-1.85.22,12,12,0,0,1-5.46-1.6l-1.72,3.6a9.94,9.94,0,0,0,1.6.76,16.53,16.53,0,0,0,4.27.94.3.3,0,0,1,.27.31Z" transform="translate(-327.29 -119.66)"/><path class="cls-2" d="M477.91,120.67h0a.35.35,0,0,0,.35.34h85.68a.34.34,0,0,0,.34-.34h0a.35.35,0,0,0-.34-.35H478.26A.35.35,0,0,0,477.91,120.67Z" transform="translate(-327.29 -119.66)"/><path class="cls-2" d="M368,276.62a.35.35,0,0,0-.35-.35h-29a.36.36,0,0,0-.36.29.34.34,0,0,0,.34.4h29.06a.34.34,0,0,0,.35-.34Z" transform="translate(-327.29 -119.66)"/><path class="cls-2" d="M353.07,151.82a.28.28,0,0,1-.13,0l-4.65-2.06a10.73,10.73,0,0,1-4.12.81h-.12a10.82,10.82,0,0,1-10.81-10.87v-.08a10.85,10.85,0,0,1,10.84-10.82h.11A10.86,10.86,0,0,1,355,139.64v.08h0a10.67,10.67,0,0,1-2.42,6.8l.8,4.92a.33.33,0,0,1-.12.31A.31.31,0,0,1,353.07,151.82Zm-4.78-2.77a.31.31,0,0,1,.13,0l4.23,1.87-.73-4.47a.31.31,0,0,1,.07-.26,10.06,10.06,0,0,0,2.37-6.5v-.09a10.2,10.2,0,0,0-10.17-10.21h-.11a10.2,10.2,0,0,0-10.19,10.17v.08a10.21,10.21,0,0,0,10.17,10.22h.11a10.24,10.24,0,0,0,4-.81A.31.31,0,0,1,348.29,149.05Zm6.39-9.33Z" transform="translate(-327.29 -119.66)"/><path class="cls-2" d="M344.32,147.17h0a.41.41,0,0,1-.28-.11l-5.46-5.49a4.51,4.51,0,0,1,0-6.37,3.28,3.28,0,0,1,2.68-1,4.6,4.6,0,0,1,3.07,1.94,4.62,4.62,0,0,1,3.09-1.93,3.28,3.28,0,0,1,2.66,1,4.53,4.53,0,0,1,0,6.38l-5.49,5.46A.39.39,0,0,1,344.32,147.17ZM341,134.94a2.57,2.57,0,0,0-1.81.8,3.74,3.74,0,0,0,0,5.29l5.19,5.21,5.21-5.19a3.68,3.68,0,0,0,1.1-2.64h0a3.7,3.7,0,0,0-1.08-2.64,2.52,2.52,0,0,0-2.05-.8,4.16,4.16,0,0,0-2.84,2,.37.37,0,0,1-.32.17h0A.37.37,0,0,1,344,137a4.13,4.13,0,0,0-2.83-2Z" transform="translate(-327.29 -119.66)"/><path class="cls-2" d="M358.82,254.51a3.67,3.67,0,1,0,3.66,3.67A3.68,3.68,0,0,0,358.82,254.51Zm0,6.65a3,3,0,1,1,3-3A3,3,0,0,1,358.82,261.16Z" transform="translate(-327.29 -119.66)"/><path class="cls-2" d="M657.37,158.92a3.67,3.67,0,1,0,3.66,3.67A3.68,3.68,0,0,0,657.37,158.92Zm0,6.65a3,3,0,1,1,3-3A3,3,0,0,1,657.37,165.57Z" transform="translate(-327.29 -119.66)"/></g></svg>